<?xml version="1.0" encoding="UTF-8"?>
<svg id="Layer_2" data-name="Layer 2" xmlns="http://www.w3.org/2000/svg" viewBox="0 0 167.47 154.8">
  <defs>
    <style>
      .cls-1 {
        fill: #231f20;
      }
    </style>
  </defs>
  <g id="Layer_1-2" data-name="Layer 1">
    <g>
      <path class="cls-1" d="M49.55,154.8c-6.43,0-11.46-1.32-15.37-4.03-7.09-4.92-10.6-15.36-8.17-24.27,2.24-8.19,8.55-14.04,14.66-19.7l.34-.31c.77-.71,1.56-1.44,2.31-2.16,6.67-6.32,12.75-13.44,18.09-21.16.67-.96,1.34-1.96,1.99-2.93,2.39-3.56,4.87-7.24,7.82-10.25l.12-.12c3.26-3.3,7.66-5.13,12.39-5.13,2.36,0,4.64.45,6.76,1.33,2.12.88,4.02,2.16,5.64,3.81l.11.11c2.95,3.02,5.42,6.7,7.82,10.26.68,1.01,1.34,1.99,1.99,2.93,5.33,7.71,11.42,14.83,18.09,21.16.76.72,1.55,1.45,2.32,2.16l.33.31c6.11,5.66,12.43,11.51,14.66,19.7,2.43,8.91-1.08,19.35-8.17,24.27-3.91,2.71-8.94,4.03-15.39,4.03-.45,0-.91,0-1.37-.02-4.82-.14-9.68-.9-14.43-2.26-5.98-1.71-12.15-2.58-18.36-2.58-6.2,0-12.38.87-18.36,2.58-4.76,1.36-9.61,2.12-14.44,2.26-.47.01-.93.02-1.39.02Z"/>
      <path class="cls-1" d="M145.44,86.17c-2.71,0-5.48-.68-8.23-2.03-4.6-2.25-7.21-5.43-7.95-9.7-.79-4.51.47-10.06,3.85-16.96,3.5-7.15,7.78-12.68,12.37-16,2.97-2.14,5.9-3.23,8.71-3.23,1.67,0,3.32.39,4.91,1.17,4.34,2.13,7.22,6.68,8.09,12.8.89,6.28-.42,13.43-3.7,20.13-3.15,6.44-7.4,10.84-12.28,12.73-1.86.72-3.8,1.09-5.78,1.09Z"/>
      <path class="cls-1" d="M108.57,54.59c-.74,0-1.49-.04-2.23-.11-5.62-.52-9.54-2.78-11.97-6.89-2.56-4.33-3.43-10.51-2.65-18.91.4-4.35,1.18-8.4,2.29-12.03,1.09-3.54,2.5-6.63,4.18-9.17C101.47,2.52,105.5,0,110.17,0c.41,0,.83.02,1.25.06,5.3.49,10.03,4.05,13.32,10.01,3.36,6.09,4.79,13.94,4.03,22.08-.73,7.83-3.38,14-7.65,17.84-3.39,3.05-7.61,4.6-12.54,4.6Z"/>
      <path class="cls-1" d="M22.03,86.17c-1.98,0-3.92-.37-5.78-1.09-4.88-1.89-9.13-6.29-12.28-12.73C.69,65.65-.62,58.5.27,52.22c.87-6.13,3.74-10.67,8.09-12.8,1.58-.77,3.23-1.17,4.91-1.17,2.81,0,5.74,1.09,8.71,3.23,4.59,3.32,8.87,8.85,12.38,16,3.38,6.9,4.64,12.45,3.85,16.96-.75,4.27-3.35,7.45-7.95,9.7-2.75,1.35-5.52,2.03-8.23,2.03Z"/>
      <path class="cls-1" d="M58.9,54.59c-4.92,0-9.14-1.55-12.53-4.6-4.27-3.84-6.92-10.01-7.65-17.85-.76-8.14.67-15.99,4.03-22.08C46.02,4.11,50.75.55,56.05.06,56.47.02,56.89,0,57.3,0c4.67,0,8.7,2.52,11.98,7.49,3.42,5.18,5.66,12.52,6.47,21.2.18,1.97.28,3.84.28,5.56,0,5.66-.96,10.02-2.92,13.34-2.44,4.11-6.35,6.36-11.97,6.89-.75.07-1.5.11-2.24.11Z"/>
    </g>
  </g>
</svg>