<?xml version="1.0" encoding="UTF-8"?>
<svg id="Layer_2" data-name="Layer 2" xmlns="http://www.w3.org/2000/svg" viewBox="0 0 116.25 164.94">
  <defs>
    <style>
      .cls-1 {
        fill: #231f20;
      }
    </style>
  </defs>
  <g id="Layer_1-2" data-name="Layer 1">
    <path class="cls-1" d="M46.72,94.56c0-19.9,21.24-26.6,21.24-51.42,0-14.75-7.6-26.15-14.08-26.15-3.8,0-8.94,3.58-8.94,15.65,0,5.85,1.06,11.82,2.77,17.53.8,2.66-1,5.4-3.76,5.75l-38.64,4.96c-2.57.33-4.9-1.57-5.09-4.16-.14-1.97-.21-3.86-.21-5.75C0,16.77,26.38,0,61.48,0s54.77,19.67,54.77,44.04c0,38-49.85,42.07-49.85,59.06v.31c0,.79-.64,1.43-1.43,1.43h-13.09c-2.17,0-4.03-1.55-4.44-3.68s-.71-4.45-.71-6.6ZM60.65,116.34l20.45,20.62c1.76,1.77,1.75,4.63-.03,6.39l-20.45,20.28c-1.76,1.74-4.59,1.75-6.35.01l-20.62-20.28c-1.79-1.76-1.8-4.64-.03-6.42l20.62-20.62c1.77-1.77,4.64-1.76,6.4.01Z"/>
  </g>
</svg>