<?xml version="1.0" encoding="UTF-8"?>
<svg id="Layer_2" data-name="Layer 2" xmlns="http://www.w3.org/2000/svg" viewBox="0 0 8.82 11.6">
  <defs>
    <style>
      .cls-1 {
        fill: #1a1a1a;
      }
    </style>
  </defs>
  <g id="Layer_1-2" data-name="Layer 1">
    <path class="cls-1" d="M4.01,11.6c-.07,0-.13-.03-.18-.08-.16-.17-3.83-4.16-3.83-7.25C0,1.92,1.98,0,4.41,0s4.41,1.91,4.41,4.27c0,3.1-4.46,7.09-4.65,7.26-.05.04-.11.06-.16.06ZM4.41.49C2.25.49.49,2.19.49,4.27c0,2.54,2.81,5.91,3.53,6.73.84-.79,4.3-4.18,4.3-6.73,0-2.08-1.76-3.78-3.92-3.78ZM4.38,6.89c-1.3,0-2.35-1.05-2.35-2.35s1.06-2.35,2.35-2.35,2.36,1.05,2.36,2.35-1.06,2.35-2.36,2.35ZM4.38,2.68c-1.03,0-1.86.83-1.86,1.86s.84,1.86,1.86,1.86,1.86-.83,1.86-1.86-.84-1.86-1.86-1.86Z"/>
  </g>
</svg>