<?xml version="1.0" encoding="UTF-8"?>
<svg id="Layer_2" data-name="Layer 2" xmlns="http://www.w3.org/2000/svg" viewBox="0 0 122.46 172.72">
  <defs>
    <style>
      .cls-1 {
        fill: #231f20;
      }
    </style>
  </defs>
  <g id="Layer_1-2" data-name="Layer 1">
    <g>
      <g>
        <path class="cls-1" d="M47.48,95c-2.59,0-4.61-.53-6.18-1.62-2.85-1.98-4.26-6.18-3.29-9.76.9-3.29,3.44-5.65,5.9-7.92l.13-.13c.31-.29.63-.58.93-.87,2.68-2.54,5.13-5.4,7.28-8.51.27-.39.54-.79.8-1.18.96-1.43,1.96-2.91,3.14-4.12l.05-.05c1.31-1.33,3.08-2.06,4.98-2.06.95,0,1.87.18,2.72.53s1.62.87,2.27,1.53l.04.04c1.19,1.22,2.18,2.69,3.14,4.12.27.41.54.8.8,1.18,2.14,3.1,4.59,5.96,7.28,8.51.31.29.62.58.93.87l.13.13c2.46,2.28,5,4.63,5.9,7.92.98,3.58-.43,7.78-3.29,9.76-1.57,1.09-3.6,1.62-6.19,1.62-.18,0-.37,0-.55,0-1.94-.06-3.89-.36-5.8-.91-2.4-.69-4.89-1.04-7.38-1.04s-4.98.35-7.38,1.04c-1.91.55-3.87.85-5.81.91-.19,0-.37,0-.56,0Z"/>
        <path class="cls-1" d="M86.05,67.4c-1.09,0-2.2-.27-3.31-.82-1.85-.91-2.9-2.18-3.2-3.9-.32-1.82.19-4.05,1.55-6.82,1.41-2.88,3.13-5.1,4.98-6.43,1.19-.86,2.37-1.3,3.5-1.3.67,0,1.34.16,1.97.47,1.75.86,2.9,2.68,3.25,5.15.36,2.53-.17,5.4-1.49,8.1-1.27,2.59-2.98,4.36-4.94,5.12-.75.29-1.53.44-2.33.44Z"/>
        <path class="cls-1" d="M71.22,54.7c-.3,0-.6-.01-.9-.04-2.26-.21-3.84-1.12-4.81-2.77-1.03-1.74-1.38-4.23-1.06-7.6.16-1.75.47-3.38.92-4.84.44-1.42,1-2.67,1.68-3.69,1.32-2,2.94-3.01,4.82-3.01.17,0,.33,0,.5.02,2.13.2,4.03,1.63,5.35,4.03,1.35,2.45,1.93,5.6,1.62,8.88-.29,3.15-1.36,5.63-3.08,7.18-1.36,1.23-3.06,1.85-5.04,1.85Z"/>
        <path class="cls-1" d="M36.42,67.4c-.79,0-1.58-.15-2.32-.44-1.96-.76-3.67-2.53-4.94-5.12-1.32-2.69-1.85-5.57-1.49-8.1.35-2.46,1.51-4.29,3.25-5.15.64-.31,1.3-.47,1.97-.47,1.13,0,2.31.44,3.5,1.3,1.85,1.33,3.57,3.56,4.98,6.43,1.36,2.77,1.87,5.01,1.55,6.82-.3,1.72-1.35,2.99-3.2,3.9-1.11.54-2.22.82-3.31.82Z"/>
        <path class="cls-1" d="M51.24,54.7c-1.98,0-3.68-.62-5.04-1.85-1.72-1.55-2.78-4.03-3.08-7.18-.31-3.28.27-6.43,1.62-8.88,1.32-2.4,3.22-3.83,5.36-4.03.17-.02.34-.02.5-.02,1.88,0,3.5,1.01,4.82,3.01,1.38,2.08,2.28,5.03,2.6,8.53.07.79.11,1.55.11,2.24,0,2.27-.38,4.03-1.18,5.37-.98,1.65-2.55,2.56-4.81,2.77-.3.03-.6.04-.9.04Z"/>
      </g>
      <path class="cls-1" d="M121.85,52.55C117.64,22.84,92.1,0,61.23,0S4.83,22.84.61,52.55c-.4,2.83-.61,5.74-.61,8.68,0,8.64,1.79,16.86,5.02,24.31,1.87,4.32,11.26,22.77,14.04,26.51l32.96,55.37c4.18,7.02,14.33,7.07,18.58.09l33.34-54.81c2.77-3.73,11.63-22.83,13.5-27.14,3.23-7.46,5.02-15.68,5.02-24.33,0-2.95-.21-5.85-.61-8.68ZM61.26,107.78c-25.03.02-45.32-20.28-45.31-45.31S36.59,17.24,61.2,17.23c25.03-.02,45.33,20.28,45.31,45.31-.02,24.61-20.63,45.23-45.25,45.25Z"/>
    </g>
  </g>
</svg>