<?xml version="1.0" encoding="UTF-8"?>
<svg id="Layer_2" data-name="Layer 2" xmlns="http://www.w3.org/2000/svg" viewBox="0 0 151.63 39.27">
  <defs>
    <style>
      .cls-1 {
        fill: #231f20;
      }
    </style>
  </defs>
  <g id="Layer_1-2" data-name="Layer 1">
    <g>
      <path class="cls-1" d="M134.52,1.05l16.08,16.22c1.38,1.39,1.37,3.64-.02,5.03l-16.08,15.95c-1.38,1.37-3.61,1.37-5,.01l-16.22-15.95c-1.41-1.38-1.42-3.65-.02-5.05L129.48,1.04c1.39-1.39,3.65-1.39,5.04.01Z"/>
      <path class="cls-1" d="M78.41,1.05l16.08,16.22c1.38,1.39,1.37,3.64-.02,5.03l-16.08,15.95c-1.38,1.37-3.61,1.37-5,.01l-16.22-15.95c-1.41-1.38-1.42-3.65-.02-5.05L73.37,1.04c1.39-1.39,3.65-1.39,5.04.01Z"/>
      <path class="cls-1" d="M22.3,1.05l16.08,16.22c1.38,1.39,1.37,3.64-.02,5.03l-16.08,15.95c-1.38,1.37-3.61,1.37-5,.01L1.06,22.31c-1.41-1.38-1.42-3.65-.02-5.05L17.26,1.04c1.39-1.39,3.65-1.39,5.04.01Z"/>
    </g>
  </g>
</svg>