<?xml version="1.0" encoding="UTF-8"?>
<svg id="Layer_2" data-name="Layer 2" xmlns="http://www.w3.org/2000/svg" xmlns:xlink="http://www.w3.org/1999/xlink" viewBox="0 0 595.28 155.91">
  <defs>
    <style>
      .cls-1 {
        fill: none;
      }

      .cls-2 {
        fill: #202738;
      }

      .cls-3 {
        fill: #c46b48;
      }

      .cls-4 {
        clip-path: url(#clippath);
      }
    </style>
    <clipPath id="clippath">
      <rect class="cls-1" width="595.28" height="155.91"/>
    </clipPath>
  </defs>
  <g id="Layer_1-2" data-name="Layer 1">
    <g class="cls-4">
      <path class="cls-2" d="M512.66,107.54c.87-.55,2.47-1.79,3.33-2.33-11.55-14.64-17.45-22.05-23.62-39.79-.55-1.41-.82-2.12-1.36-3.53.99.88,1.48,1.32,2.47,2.2,1.27-.56,2.84-1.24,3.43-1.53,9.38-4.53,13.45-15.19,9.96-26.17-1.19-3.74-3.82-7.35-7.19-10.48-.62.32-.93.48-1.54.8-.21-1.04-.32-1.56-.53-2.6-5.99-4.81-13.67-8.09-20.05-8.24-9.57-.24-14.27,1.75-23.46,2.63.24,4.86.47,9.71.71,14.56,1.28.55,1.92.82,3.21,1.38-1.12,1.57-1.67,2.35-2.78,3.92-.07-.1-.11-.16-.18-.26.82,16.95,1.65,33.89,2.47,50.84,5.69,2.83,11.38,5.72,17.27,8.75-3.7-20.76-4.18-42.3-4.56-63.35-1.1-.48-1.65-.72-2.74-1.2,1.46-.13,2.18-.2,3.63-.32,4.31-2.56,13.89-1.16,17.05,2.87,4.63,5.9,3.24,13.93-.7,17.84-2.76,2.74-11.27,6.63-11.27,6.63,9.62,20.88,14.86,33.94,26.52,53.76,3.01-1.94,5.68-3.65,8.22-5.27-1.07-1.28-1.6-1.92-2.66-3.2,1.76.83,2.64,1.25,4.4,2.09"/>
      <path class="cls-2" d="M392.56,48.88c-.51-1.07-.77-1.61-1.29-2.69.98-.03,1.46-.05,2.44-.08,1.42-3.93,1.98-8.11,1.51-12.25-1.43-12.63-8.14-25.27-21.17-28.2-15.52-3.48-30.42-1.25-37.59-2.48.58,4.14,1.49,8.36,1.9,12.62.95.3,1.43.46,2.38.76-.81,1.22-1.22,1.83-2.03,3.05.99,15.72,1.36,31.08,1.13,46.82.83.54,1.24.81,2.07,1.34-.89,1.17-1.33,1.75-2.22,2.92-.28,6.78-.71,13.23-1.27,19.16,6.46,2.11,18.6,9.38,18.6,9.38-1.51-27.45-1.97-52.36-.53-79.83-.91-.83-1.37-1.25-2.29-2.08.96.24,1.44.36,2.4.6.32-.03,18.82-1.48,21.2,13.23,2.63,16.22-11.18,24.36-18.99,26.01,4.05,7.78,10.7,12,10.7,12,9.21-3.21,18.8-11.29,23.05-20.29"/>
      <path class="cls-2" d="M86.89,25.66c-6.15-.9-12.32-1.76-18.46-2.56,1.02,12.53,1.55,25.33,1.09,37.89.02-.01.04-.02.06-.03-.19,2.55-.29,3.82-.48,6.37-.55-1.06-.82-1.6-1.37-2.66-10.25,2.18-18.54,4.07-27.86,6.3-1.08-13.83-.5-27.79,0-41.63-5.99,2.93-11.99,5.93-17.27,8.61.12,4.42.25,9.04.36,13.78.96.54,1.44.81,2.41,1.34-.92,1.23-1.38,1.84-2.3,3.06.52,21.78.91,43.56,1.51,65.34,1.1-.05,7.54-.25,8.69-.3l.4-2.81,2.93,2.68c3.3-.12.82-.05,4.27-.14-.5-10.68-2.03-16.32-1.51-34.44.03,0,.06-.01.08-.02.03-1.6.05-2.39.08-3.99.85,1.39,1.27,2.08,2.12,3.46,9.79-2.31,26.88-5.87,26.88-5.87.77,13.19.4,25.39-.1,34.72,4.01-1.72,7.98-3.39,11.76-4.96l1.21-2.4c.85.41,1.28.61,2.12,1.02.58-.24,1.19-.49,1.76-.72,0-11.33-.22-24.87.06-36.28.38-15.25.9-30.52,1.58-45.77"/>
      <path class="cls-2" d="M137.88,30.01c.69.32,1.03.49,1.72.81-.74,1.11-1.11,1.67-1.85,2.79-.59,15.13-1.26,30.26-1.66,45.4,0,0-4.44,2.65-10.02,2.04-7.05-.77-12.22-6.69-13.17-16.59-1.39-14.44.17-29.5,2.04-44.1-4.27,2.15-8.4,4.24-12.46,6.36-1.2,1.76-1.8,2.64-3,4.4-.88-.65-1.32-.97-2.2-1.62l-2.11.42c-.6,6.34-1.11,27.22.52,40.08,1.82,14.35,13.18,24.93,26.3,29.95,6.4-5.15,14.22-11.94,14.52-11.79-.19,5.01-.22,5.61-.43,11.18,3.46-2.83,9.24-6.59,13.21-9.05.38-1.57.56-2.35.94-3.92.33,1.13.49,1.7.82,2.83.79-.48,1.44-.88,1.88-1.13.2-12.81.66-25.68,1.5-38.45.48-7.35,1.82-16.97,2.67-23.86-6.65-2.72-12.99-5.25-18.89-7.56-.08,3.67-.2,7.67-.34,11.84"/>
      <path class="cls-2" d="M274.27,76.28c.65-.8,1.3-1.61,1.94-2.4-8.3-9.6-16.65-19.16-25.05-28.67,2.1-1.76,5.59-4.89,9.16-8.16.54-1.58.81-2.37,1.35-3.95.82.32,1.23.49,2.04.81,3.4-3.16,6.15-6.12,7.76-7.81,0,0-6.81-9.08-10.98-12.75-10.02,15.52-25.34,28.23-25.34,28.23V2.81c-1.09.43-2.17.86-3.26,1.3-1.06,1.41-1.58,2.11-2.64,3.53-.79-.67-1.18-1-1.97-1.67-3.21,1.3-6.42,2.61-9.6,3.93.51,13.01.95,26.03,1.21,39.03.17,8.73.1,17.5.07,26.42.78.42,1.17.63,1.95,1.06-.78,1.11-1.17,1.67-1.96,2.79,0,1.14,0,2.26,0,3.4,4.99,1.82,10.59,3.9,16.14,6v-37.39c11.02,11.24,20.61,24.57,28.78,37.97,2.8-3.48,5.56-6.9,8.29-10.28-.52-.91-.78-1.36-1.3-2.27,1.36-.13,2.04-.2,3.4-.33"/>
      <path class="cls-2" d="M572.68,104.71c-8.74-12.63-16.02-23.71-24.85-36.28,4.73-2.73,16.48-13.17,21.17-18.45-2.88-2.85-6.29-5.28-6.29-5.28-.74.11-2.38.59-3.13.71-.07-1.06.33-2.02.26-3.09l-4.08-2.95c-9.11,14.33-21.98,21.35-21.98,21.35V20.71c-5.78.75-12.37,2.39-18.06,3.22.45,12.5,1.62,24.17,1.92,36.67,1.45.7,2.17,1.05,3.62,1.76-1.42.27-2.14.4-3.56.67.02,1.1.05,2.17.07,3.17.21,11.15.04,22.23.04,33.68.51.33,1.05.67,1.57,1.01,1.14-.11,1.72-.16,2.86-.27.2.97.29,1.45.49,2.42,3.56,2.31,11,5.5,11,5.5v-35.7c5.59,6.88,12.09,17.52,17.36,26.8,1.44.93,4.04,1.91,4.04,1.91-.46.82-1.12,1.66-1.58,2.48,4.49,8.12,7.08,12.6,7.08,12.6,4.09-4.06,8.13-8.06,12.07-11.94"/>
      <path class="cls-2" d="M205.85,52.55c-.49-2.04-.74-3.07-1.23-5.11-.07-.03-.14-.07-.21-.09-11.72-4.36-25.42-6.19-23.86-14.45,1.05-5.6,4.79-7,9.88-7.26,4.8-.24,9.57.31,13.99.53,1.59-5.14,3.1-10.01,4.99-16.14-7.75.39-15.26.18-22.65,1.52-3.33.61-6.49,1.62-9.38,3-1.7,2.35-2.54,3.53-4.24,5.89-.9-.72-1.35-1.08-2.25-1.8-6.12,5.04-9.7,12.24-8.73,20.73.99,8.63,9.28,14.53,18.74,16.65,9.46,2.12,15.93,2.44,14.69,11.92-1.01,7.71-22.79,8.12-28.68,8.32-.13,2.66-.26,5.49-.4,8.42.84.41,1.26.62,2.09,1.04-.92,1.36-1.38,2.04-2.3,3.4-.05,1.07-.1,2.14-.15,3.22,6.3-2.62,22.29-.51,35.48-6.31,12.25-5.38,13.95-24.72,6.78-35.77-1.03.91-1.54,1.37-2.57,2.28"/>
      <path class="cls-2" d="M322.1,12.2c.15-1.18.22-1.76.37-2.94-1.91-1.83-3.3-3.2-3.3-3.2-6.19,13.37-15.73,30.25-15.73,30.25-6.85-10.89-14.05-23.14-22.1-33.19-5.33,4.56-8,6.85-13.33,11.48,8.97,10.66,17.6,21.59,24.4,33.5,1.98-.16,2.98-.23,4.96-.38-1.74,1.16-2.61,1.74-4.35,2.9-.31,8.84-.57,29.01-.9,36.49,0,0,4.79-.75,10.85-.56,1-.75,1.5-1.13,2.51-1.89l.78,2.08c1.07.1,2.17.23,3.26.4,0-9.36.32-36.96.32-36.96,7.3-10.82,14.97-21.54,21.37-32.93-1.64-1.34-3.95-3.46-6.12-5.5-1.2.17-1.8.26-3,.44"/>
      <path class="cls-2" d="M434.14,37.74c-.84.08-1.26.12-2.1.2.34-1.48.51-2.22.86-3.69-4.24-11.95-8.36-23.54-12.04-33.92-.82.38-1.69.79-2.56,1.2-.52,1.43-.77,2.14-1.29,3.57-.86-.78-1.29-1.17-2.15-1.95-2.77,1.31-5.71,2.71-8.84,4.21,6.93,10.38,4.61,24.55.68,34.19-6.51,15.96-15.52,31.18-27.31,43.85,3.53,4.94,7.31,8.83,12.48,13.22,1.65-2.81,7.36-10.71,9.85-14.49-.91-.81-1.36-1.22-2.27-2.03,1.31.17,1.96.26,3.27.43,0-.01.02-.03.03-.04.33-.04,22.26,1.78,30.23,2.49,0,0,6.96,15.41,8.31,18.91.85-.55,1.68-1.09,2.5-1.61,0-1.19.02-1.79.03-2.99.95.58,1.42.87,2.37,1.44,3.1-1.99,5.9-3.77,8.29-5.29-6.74-19.24-13.54-38.47-20.36-57.69M408.46,69.75c3.96-8.77,8.69-19.2,11.66-28.5,3.53,11.74,5.29,17.62,8.82,29.39-7.29-.38-13.76-.66-20.47-.89"/>
      <path class="cls-3" d="M55.24,149.57c-.1-.08-.14-.19-.14-.33v-3.18c0-.14.05-.27.14-.38.1-.12.21-.19.35-.22,4.97-.95,7.46-1.41,12.44-2.3.14-.03.25,0,.35.08.1.08.15.19.15.33v3.18c0,.14-.05.27-.15.38-.1.12-.21.19-.35.21-4.98.9-7.47,1.36-12.44,2.3-.14.03-.26,0-.35-.08"/>
      <path class="cls-3" d="M89.34,153.01c-.31-1.7-.47-2.56-.79-4.26,0-.14-.08-.2-.25-.17-2.43.4-3.64.6-6.07,1.01-.17.03-.25.11-.25.25-.32,1.81-.47,2.71-.79,4.52-.03.31-.21.49-.54.55-1.51.26-2.27.39-3.78.65-.39.07-.54-.09-.46-.46,2.46-11.73,3.69-17.59,6.15-29.31.06-.31.23-.5.54-.55,1.76-.3,2.64-.44,4.4-.73.31-.05.48.08.54.37,2.46,10.9,3.69,16.35,6.16,27.27v.17c0,.25-.15.4-.46.45-1.55.25-2.32.37-3.87.62-.33.05-.51-.07-.54-.37M82.94,145.67c1.85-.31,2.77-.46,4.61-.77.17-.03.24-.11.21-.24-.96-5.13-1.45-7.69-2.41-12.81-.03-.08-.07-.11-.12-.1-.06.01-.1.06-.12.15-.95,5.44-1.42,8.16-2.37,13.61-.03.14.04.2.21.17"/>
      <path class="cls-3" d="M110.11,149.84c-1.42-4.59-2.13-6.89-3.54-11.48-.06-.1-.12-.15-.21-.14-.88.13-1.33.2-2.21.33-.14.02-.21.1-.21.24v11.87c0,.14-.05.26-.15.38-.1.11-.21.18-.35.2-1.53.23-2.3.35-3.83.59-.14.02-.26-.01-.35-.09-.1-.08-.14-.19-.14-.33v-28.26c0-.14.05-.26.14-.38.1-.11.22-.18.35-.2,3.13-.48,4.7-.72,7.83-1.19,1.47-.22,2.77-.05,3.89.49,1.13.55,2,1.42,2.63,2.63.63,1.2.94,2.65.94,4.32s-.33,3.27-1,4.62c-.67,1.35-1.6,2.43-2.79,3.25-.11.04-.15.13-.12.27,1.63,4.8,2.45,7.19,4.08,12,.03.05.04.12.04.2,0,.25-.15.4-.46.44-1.6.23-2.4.34-4,.58-.28.04-.46-.07-.54-.34M103.95,126.3v8.32c0,.14.07.2.21.18,1.02-.15,1.52-.23,2.54-.38,1-.15,1.81-.66,2.44-1.53.62-.87.94-1.98.94-3.31s-.31-2.36-.94-3.06c-.63-.7-1.44-.98-2.44-.83-1.02.15-1.52.23-2.54.38-.14.02-.21.1-.21.24"/>
      <path class="cls-3" d="M122.05,146.75c-1.43-1.24-2.15-3.04-2.15-5.41v-14.26c0-2.4.72-4.4,2.15-6,1.43-1.6,3.33-2.57,5.69-2.88,2.39-.32,4.31.14,5.76,1.36s2.17,3.03,2.17,5.43v.5c0,.14-.05.27-.14.4-.1.12-.22.19-.36.21-1.55.26-2.33.4-3.88.66-.33.04-.5-.1-.5-.44v-1.05c0-.98-.28-1.73-.84-2.27-.56-.54-1.29-.75-2.21-.63-.89.12-1.62.52-2.17,1.21-.56.69-.83,1.52-.83,2.49v14.97c0,.98.28,1.73.83,2.27.56.54,1.28.75,2.17.63.92-.12,1.65-.52,2.21-1.21.56-.68.84-1.52.84-2.49v-1.05c0-.14.05-.26.15-.37.1-.11.22-.17.36-.19,1.55-.14,2.33-.2,3.88-.33.14-.02.26.01.36.1.1.09.14.2.14.34v.5c0,2.37-.72,4.36-2.17,5.98-1.45,1.62-3.37,2.59-5.76,2.9-2.37.31-4.26-.15-5.69-1.39"/>
      <path class="cls-3" d="M156.92,115.16c.1.09.15.2.15.34v3.18c0,.14-.05.26-.15.37-.1.11-.22.17-.36.19-2.12.23-3.19.35-5.31.59-.14.02-.21.09-.21.23v24.37c0,.14-.05.26-.15.37-.1.11-.21.17-.35.19-1.54.18-2.31.27-3.84.45-.14.02-.26-.02-.36-.1-.1-.09-.15-.2-.15-.34v-24.37c0-.14-.07-.2-.21-.18-2.01.24-3.01.36-5.01.6-.14.02-.26-.02-.35-.1-.1-.08-.15-.2-.15-.34v-3.18c0-.14.05-.26.15-.37.1-.11.21-.17.35-.19,6.23-.76,9.35-1.12,15.59-1.8.14-.01.26.02.36.11"/>
      <path class="cls-3" d="M162.69,143.51c-.1-.09-.15-.2-.15-.34v-28.27c0-.14.05-.26.15-.37.1-.11.22-.17.36-.18,1.54-.16,2.31-.24,3.85-.4.14-.01.26.03.35.11.1.09.15.2.15.34v28.26c0,.14-.05.26-.15.37-.1.11-.21.17-.35.18-1.54.16-2.31.24-3.85.4-.14.01-.26-.02-.36-.11"/>
      <path class="cls-3" d="M175.66,140.55c-1.44-1.3-2.16-3.13-2.16-5.5v-14.26c0-2.4.72-4.37,2.16-5.91,1.44-1.54,3.34-2.43,5.71-2.64,2.4-.21,4.33.32,5.78,1.6,1.45,1.28,2.18,3.12,2.18,5.52v.5c0,.14-.05.27-.15.39-.1.12-.22.18-.35.19-1.56.2-2.34.3-3.9.5-.33.03-.5-.12-.5-.46v-1.05c0-.97-.28-1.74-.84-2.31-.56-.56-1.3-.81-2.22-.72-.9.08-1.62.46-2.18,1.12-.56.67-.84,1.48-.84,2.46v14.97c0,.98.28,1.74.84,2.31.56.56,1.28.8,2.18.72.92-.08,1.66-.45,2.22-1.12.56-.66.84-1.48.84-2.46v-1.05c0-.14.05-.26.15-.37.1-.1.22-.17.35-.18,1.56-.07,2.34-.1,3.9-.17.14-.01.26.03.35.11.1.09.15.2.15.34v.5c0,2.37-.73,4.33-2.18,5.89-1.45,1.56-3.38,2.44-5.78,2.66-2.37.21-4.28-.32-5.71-1.62"/>
      <path class="cls-3" d="M207.37,137.94c-1.44-1.34-2.16-3.19-2.16-5.55v-14.26c0-2.4.72-4.35,2.16-5.86,1.44-1.51,3.35-2.34,5.72-2.5,2.4-.16,4.33.43,5.79,1.75,1.45,1.32,2.18,3.18,2.18,5.58v.5c0,.14-.05.27-.15.39-.1.12-.22.18-.35.19-1.56.16-2.34.24-3.9.41-.34.02-.5-.14-.5-.47v-1.05c0-.97-.28-1.75-.84-2.33-.56-.58-1.3-.84-2.22-.78-.89.06-1.62.42-2.18,1.07-.56.65-.84,1.46-.84,2.44v14.97c0,.98.28,1.75.84,2.33.56.58,1.29.84,2.18.78.92-.06,1.66-.41,2.22-1.06.56-.65.84-1.46.84-2.44v-1.05c0-.14.05-.26.15-.36.1-.1.22-.16.36-.17,1.56-.03,2.34-.05,3.9-.07.14,0,.26.03.35.12.1.09.15.21.15.35v.5c0,2.37-.73,4.31-2.18,5.84-1.45,1.52-3.38,2.36-5.79,2.52-2.38.16-4.28-.43-5.72-1.77"/>
      <path class="cls-3" d="M227.12,138.38c-.1-.09-.15-.2-.15-.35v-28.26c0-.14.05-.26.15-.36.1-.1.22-.16.36-.17,1.54-.08,2.32-.12,3.86-.2.14,0,.26.03.36.13.1.09.15.21.15.35v28.26c0,.14-.05.26-.15.36-.1.1-.22.16-.36.17-1.54.08-2.32.12-3.86.2-.14,0-.26-.03-.36-.13"/>
      <path class="cls-3" d="M249.54,137.08c-1.43-4.75-2.14-7.12-3.57-11.86-.06-.11-.13-.16-.21-.16-.89.04-1.34.05-2.23.09-.14,0-.21.08-.21.22v11.88c0,.14-.05.26-.15.36-.1.1-.22.16-.36.16-1.54.07-2.32.1-3.86.17-.14,0-.26-.04-.36-.13-.1-.09-.15-.21-.15-.35v-28.26c0-.14.05-.26.15-.36.1-.1.22-.16.36-.16,3.15-.14,4.73-.21,7.89-.33,1.48-.06,2.79.25,3.93.92,1.13.67,2.01,1.64,2.64,2.92.63,1.27.95,2.75.95,4.42s-.34,3.23-1.01,4.51c-.67,1.28-1.61,2.26-2.81,2.94-.11.03-.16.12-.13.26,1.65,4.97,2.47,7.46,4.11,12.44.03.06.04.12.04.21,0,.25-.16.38-.46.39-1.61.05-2.42.08-4.03.14-.28.01-.46-.12-.54-.4M243.33,112.87v8.32c0,.14.07.21.21.2,1.02-.04,1.54-.06,2.56-.11,1.01-.04,1.83-.46,2.46-1.27.63-.8.95-1.87.95-3.21s-.32-2.39-.95-3.16c-.63-.77-1.45-1.14-2.46-1.1-1.02.04-1.54.06-2.56.1-.14,0-.21.08-.21.22"/>
      <path class="cls-3" d="M261.57,135.29c-1.44-1.4-2.16-3.27-2.16-5.64v-14.26c0-2.4.72-4.32,2.16-5.77,1.44-1.45,3.35-2.2,5.73-2.26,2.41-.06,4.34.61,5.8,1.99,1.45,1.38,2.18,3.27,2.18,5.67v.5c0,.14-.05.27-.14.38-.1.11-.22.17-.36.17-1.56.09-2.34.14-3.9.24-.33,0-.5-.16-.5-.49v-1.04c0-.98-.28-1.76-.84-2.37-.56-.6-1.3-.89-2.22-.87-.9.02-1.62.35-2.18.97-.56.63-.84,1.43-.84,2.4v14.97c0,.98.28,1.76.84,2.36.56.6,1.29.89,2.18.86.92-.02,1.67-.34,2.22-.97.56-.63.84-1.42.84-2.4v-1.05c0-.14.05-.26.15-.36.1-.1.22-.15.36-.16,1.56.04,2.34.05,3.9.09.14,0,.26.04.36.14.1.1.14.21.14.35v.5c0,2.37-.73,4.28-2.18,5.75-1.46,1.46-3.39,2.22-5.8,2.28-2.38.06-4.29-.61-5.73-2.01"/>
      <path class="cls-3" d="M281.35,136.56c-.1-.1-.15-.21-.15-.35v-28.26c0-.14.05-.26.15-.36.1-.1.22-.15.36-.15,1.54-.02,2.32-.03,3.86-.04.14,0,.26.05.36.14.1.1.15.21.15.35v24.38c0,.14.07.21.21.21,3.63-.03,5.44-.04,9.07-.05.14,0,.26.05.36.15.1.1.15.22.15.35v3.18c0,.14-.05.26-.15.35-.1.1-.22.15-.36.15-5.46.01-8.19.03-13.65.1-.14,0-.26-.05-.36-.14"/>
      <path class="cls-3" d="M315.24,111.49c-.1.1-.22.14-.36.14-3.63-.05-5.44-.07-9.07-.09-.14,0-.21.07-.21.21v7.9c0,.14.07.21.21.21,2.15.01,3.23.02,5.38.04.14,0,.26.05.36.15.1.1.15.22.15.36v3.22c0,.14-.05.26-.15.35-.1.1-.22.14-.36.14-2.15-.02-3.23-.03-5.38-.04-.14,0-.21.07-.21.21v7.94c0,.14.07.21.21.21,3.63.02,5.44.04,9.07.09.14,0,.26.05.36.15.1.1.15.22.15.36v3.18c0,.14-.05.26-.15.35-.1.1-.22.14-.36.14-5.46-.07-8.19-.1-13.65-.11-.14,0-.26-.05-.36-.15-.1-.1-.15-.21-.15-.35v-28.26c0-.14.05-.26.15-.35.1-.1.22-.15.36-.15,5.46.01,8.19.04,13.65.11.14,0,.26.05.36.15.1.1.15.22.15.36v3.18c0,.14-.05.25-.15.35"/>
      <path class="cls-3" d="M342.97,136.94c-.32-1.77-.48-2.65-.8-4.42,0-.14-.08-.21-.25-.22-2.45-.08-3.68-.12-6.13-.2-.17,0-.25.06-.25.2-.32,1.75-.48,2.62-.8,4.37-.03.31-.21.45-.55.44-1.53-.04-2.29-.06-3.82-.1-.39,0-.55-.19-.46-.55,2.49-11.24,3.73-16.86,6.21-28.09.06-.31.24-.45.55-.44,1.78.05,2.67.08,4.45.14.31.01.49.17.55.48,2.49,11.39,3.73,17.09,6.21,28.49v.17c0,.25-.15.37-.46.36-1.56-.06-2.34-.09-3.9-.14-.33-.01-.52-.17-.54-.48M336.5,128.32c1.86.06,2.8.09,4.66.15.17,0,.24-.06.21-.2-.97-5.32-1.46-7.97-2.43-13.29-.03-.09-.07-.13-.13-.13-.05,0-.1.04-.13.12-.96,5.25-1.44,7.88-2.39,13.14-.03.14.04.21.21.21"/>
      <path class="cls-3" d="M352.98,137.64c-.1-.1-.15-.22-.15-.36v-28.26c0-.14.05-.25.15-.35.1-.09.22-.14.36-.13,2.87.12,4.3.19,7.17.33,2.41.12,4.33.94,5.77,2.47,1.44,1.53,2.16,3.5,2.16,5.93v13.3c0,2.42-.72,4.32-2.16,5.69-1.44,1.37-3.36,2-5.77,1.88-2.87-.14-4.3-.21-7.17-.33-.14,0-.26-.06-.36-.16M357.91,133.83c1.01.03,1.51.05,2.52.08.92.05,1.67-.29,2.24-1,.58-.71.87-1.68.9-2.9v-12.71c0-1.25-.29-2.27-.86-3.03-.58-.77-1.35-1.17-2.33-1.22-.99-.05-1.49-.07-2.47-.12-.14,0-.21.06-.21.2v20.49c0,.14.07.21.21.22"/>
      <path class="cls-3" d="M378.75,138.69c-2.4-11.46-3.6-17.18-6-28.62-.02-.07-.02-.1-.04-.17,0-.25.15-.37.46-.35,1.69.1,2.54.15,4.23.26.34.02.52.19.55.49,1.39,8.13,2.09,12.2,3.48,20.33.03.08.07.13.13.13.06,0,.1-.03.12-.12,1.36-7.95,2.04-11.93,3.4-19.88.03-.3.21-.45.55-.42,1.64.11,2.46.17,4.11.28.36.03.5.22.42.57-2.41,11.13-3.62,16.7-6.04,27.84-.06.3-.24.44-.55.42-1.71-.11-2.56-.17-4.27-.28-.31-.02-.49-.18-.54-.5"/>
      <path class="cls-3" d="M410.16,116.27c-.1.09-.22.13-.35.12-3.62-.31-5.43-.47-9.05-.76-.14-.01-.21.05-.21.19v7.9c0,.14.07.21.21.22,2.15.17,3.22.26,5.36.44.14.01.26.07.36.18.1.1.14.23.14.36v3.22c0,.14-.05.25-.14.34-.1.09-.22.13-.36.11-2.14-.18-3.22-.27-5.36-.44-.14,0-.21.06-.21.19v7.94c0,.14.07.22.21.23,3.62.29,5.43.44,9.05.75.14.01.26.07.35.18.1.11.15.23.15.37v3.18c0,.14-.05.25-.15.34-.1.09-.22.13-.35.12-5.44-.47-8.17-.7-13.61-1.11-.14-.01-.26-.07-.36-.18-.1-.1-.15-.23-.15-.36v-28.26c0-.14.05-.25.15-.34.1-.09.22-.13.36-.12,5.45.42,8.17.64,13.61,1.11.14.01.26.07.35.18.1.11.15.23.15.37v3.18c0,.14-.05.25-.15.34"/>
      <path class="cls-3" d="M428.03,114.07c.1-.09.22-.13.35-.11,1.52.15,2.29.23,3.8.39.14.01.26.08.36.19.1.11.15.23.15.37v28.26c0,.14-.05.25-.15.34-.1.09-.22.12-.36.11-1.75-.18-2.63-.27-4.39-.45-.28-.03-.46-.19-.55-.47-2.49-7.34-3.74-11.01-6.23-18.34-.03-.09-.08-.13-.15-.12-.07,0-.11.05-.11.14.02,7.04.02,10.56.04,17.6,0,.14-.05.25-.15.34-.1.09-.22.13-.36.11-1.52-.15-2.29-.22-3.81-.36-.14-.01-.26-.07-.36-.18-.09-.1-.15-.23-.15-.37v-28.26c0-.14.05-.25.15-.34.1-.09.22-.13.36-.11,1.72.16,2.59.24,4.31.4.28.03.46.18.54.47,2.51,7.28,3.77,10.92,6.28,18.22.03.08.08.13.15.12.07,0,.1-.05.1-.14v-17.47c0-.14.05-.25.15-.34"/>
      <path class="cls-3" d="M454.66,117.04c.1.11.15.24.15.37v3.18c0,.14-.05.25-.15.34-.1.09-.22.12-.35.1-2.12-.26-3.18-.38-5.31-.64-.14-.02-.21.04-.21.18v24.37c0,.14-.05.25-.15.34-.1.09-.21.12-.35.11-1.54-.18-2.31-.27-3.84-.45-.14-.01-.26-.07-.36-.19-.1-.11-.15-.23-.15-.37v-24.38c0-.14-.07-.22-.21-.23-2.01-.23-3.01-.34-5.02-.56-.14-.02-.26-.08-.36-.19-.1-.11-.14-.23-.14-.37v-3.18c0-.14.05-.25.14-.34.1-.09.22-.12.36-.11,6.24.68,9.35,1.05,15.59,1.8.14.02.25.08.35.19"/>
      <path class="cls-3" d="M462.26,145.13c-1.43-1.73-2.15-3.86-2.15-6.4v-20.65c0-.14.05-.25.15-.34.1-.08.22-.12.35-.1,1.54.19,2.3.29,3.84.49.14.02.26.08.36.19.1.11.15.24.15.37v21.16c0,1.11.28,2.06.83,2.83.55.77,1.29,1.22,2.21,1.34.92.12,1.65-.13,2.21-.75.56-.62.83-1.49.83-2.61v-21.15c0-.14.05-.25.15-.33.1-.08.21-.12.35-.1,1.54.21,2.3.31,3.84.53.14.02.26.08.35.19.1.11.15.24.15.38v20.65c0,2.54-.72,4.48-2.17,5.83-1.44,1.35-3.35,1.86-5.71,1.55-2.39-.32-4.31-1.34-5.74-3.07"/>
      <path class="cls-3" d="M493.29,151.06c-1.42-5.02-2.12-7.52-3.54-12.54-.06-.12-.13-.19-.21-.2-.88-.13-1.32-.2-2.21-.33-.14-.02-.21.04-.21.18v11.87c0,.14-.05.25-.15.33-.1.08-.21.12-.35.1-1.53-.23-2.3-.34-3.83-.56-.14-.02-.26-.09-.35-.2-.1-.11-.15-.23-.15-.38v-28.26c0-.14.05-.25.15-.33.09-.08.21-.12.35-.1,3.14.45,4.7.68,7.83,1.16,1.47.22,2.77.77,3.89,1.66,1.12.88,2,2.02,2.62,3.42.62,1.39.94,2.93.94,4.6s-.33,3.17-1,4.32c-.67,1.15-1.6,1.95-2.79,2.41-.11.01-.15.09-.12.23,1.63,5.28,2.45,7.93,4.08,13.22.03.06.04.13.04.22,0,.25-.15.35-.46.31-1.6-.25-2.39-.38-3.99-.62-.28-.04-.46-.21-.54-.5M487.13,125.67v8.32c0,.14.07.22.21.24,1.02.15,1.52.23,2.54.38,1,.15,1.81-.12,2.43-.8.62-.69.94-1.7.94-3.03s-.31-2.45-.94-3.34c-.62-.89-1.44-1.41-2.43-1.56-1.02-.15-1.52-.23-2.54-.38-.14-.02-.21.04-.21.18"/>
      <path class="cls-3" d="M517.93,130.25c-.1.08-.22.11-.35.09-3.59-.62-5.38-.92-8.97-1.52-.14-.02-.21.03-.21.17v7.9c0,.14.07.22.21.24,2.13.35,3.19.53,5.32.89.14.02.26.09.35.21.1.11.15.24.15.38v3.22c0,.14-.05.25-.15.33-.1.08-.22.11-.35.09-2.12-.36-3.19-.54-5.32-.89-.14-.02-.21.03-.21.17v7.94c0,.14.07.22.21.24,3.59.59,5.39.9,8.97,1.51.14.02.25.09.35.21.1.11.15.24.15.38v3.18c0,.14-.05.25-.15.33-.1.08-.22.11-.35.09-5.4-.93-8.1-1.38-13.51-2.25-.14-.02-.26-.09-.35-.2-.1-.11-.15-.24-.15-.38,0-11.31,0-16.96,0-28.26,0-.14.05-.25.15-.33.1-.08.21-.11.35-.09,5.41.87,8.11,1.33,13.51,2.26.14.02.25.09.35.21.1.12.15.24.15.38v3.18c0,.14-.05.25-.15.33"/>
      <path class="cls-3" d="M526.89,147.14c-.1-.11-.14-.24-.14-.38v-3.18c0-.14.05-.25.14-.33.1-.08.22-.11.35-.08,4.98.9,7.47,1.36,12.44,2.31.14.03.26.1.35.22.1.11.15.24.15.38v3.18c0,.14-.05.25-.15.33-.1.08-.22.11-.35.08-4.97-.95-7.46-1.41-12.44-2.3-.14-.02-.25-.1-.35-.21"/>
    </g>
  </g>
</svg>